<svg xmlns="http://www.w3.org/2000/svg" viewBox="0 0 1200 700" role="img" aria-label="MORPH architecture illustration">
  <rect width="1200" height="700" rx="32" fill="#ffffff"/>
  <rect x="90" y="110" width="1020" height="480" rx="28" fill="#ffffff" stroke="#e5e7eb" stroke-width="2"/>
  <rect x="140" y="180" width="220" height="120" rx="12" fill="#f8f9fb" stroke="#1d4ed8" stroke-opacity="0.4"/>
  <text x="190" y="235" fill="#14161a" font-family="Arial, sans-serif" font-size="34" text-anchor="middle">Input tensor</text>
  <rect x="420" y="180" width="220" height="120" rx="12" fill="#f8f9fb" stroke="#1d4ed8" stroke-opacity="0.4"/>
  <text x="530" y="235" fill="#14161a" font-family="Arial, sans-serif" font-size="32" text-anchor="middle">Conv blocks</text>
  <rect x="700" y="180" width="220" height="120" rx="12" fill="#f8f9fb" stroke="#1d4ed8" stroke-opacity="0.4"/>
  <text x="810" y="235" fill="#14161a" font-family="Arial, sans-serif" font-size="28" text-anchor="middle">Cross-attention</text>
  <rect x="420" y="390" width="220" height="120" rx="12" fill="#f8f9fb" stroke="#1d4ed8" stroke-opacity="0.4"/>
  <text x="530" y="445" fill="#14161a" font-family="Arial, sans-serif" font-size="30" text-anchor="middle">Axial attention</text>
  <rect x="760" y="390" width="180" height="120" rx="12" fill="#f8f9fb" stroke="#1d4ed8" stroke-opacity="0.4"/>
  <text x="850" y="445" fill="#14161a" font-family="Arial, sans-serif" font-size="30" text-anchor="middle">Decoder</text>
  <path d="M360 240h60" stroke="#1d4ed8" stroke-width="3" stroke-linecap="round"/>
  <path d="M640 240h60" stroke="#1d4ed8" stroke-width="3" stroke-linecap="round"/>
  <path d="M920 240l-40 150" stroke="#1d4ed8" stroke-width="3" stroke-linecap="round"/>
  <path d="M640 450h120" stroke="#1d4ed8" stroke-width="3" stroke-linecap="round"/>
  <circle cx="530" cy="300" r="10" fill="#1d4ed8"/>
  <circle cx="850" cy="300" r="10" fill="#1d4ed8"/>
  <circle cx="850" cy="510" r="10" fill="#1d4ed8"/>
</svg>
